<mxfile host="65bd71144e">
    <diagram id="_z9tGO_Z6bBlTKb_uojR" name="Page-1">
        <mxGraphModel dx="1130" dy="912" grid="1" gridSize="10" guides="1" tooltips="1" connect="1" arrows="1" fold="1" page="1" pageScale="1" pageWidth="850" pageHeight="1100" math="0" shadow="0">
            <root>
                <mxCell id="0"/>
                <mxCell id="1" parent="0"/>
                <mxCell id="8" value="" style="endArrow=none;html=1;rounded=0;" parent="1" edge="1">
                    <mxGeometry width="50" height="50" relative="1" as="geometry">
                        <mxPoint x="436.5" y="522.7000000000002" as="sourcePoint"/>
                        <mxPoint x="476.5" y="522.7000000000002" as="targetPoint"/>
                    </mxGeometry>
                </mxCell>
                <mxCell id="9" value="" style="endArrow=none;html=1;rounded=0;" parent="1" edge="1">
                    <mxGeometry width="50" height="50" relative="1" as="geometry">
                        <mxPoint x="778" y="522.7" as="sourcePoint"/>
                        <mxPoint x="818" y="522.7" as="targetPoint"/>
                    </mxGeometry>
                </mxCell>
                <mxCell id="10" value="" style="endArrow=none;html=1;rounded=0;" parent="1" edge="1">
                    <mxGeometry width="50" height="50" relative="1" as="geometry">
                        <mxPoint x="770" y="571.1999999999999" as="sourcePoint"/>
                        <mxPoint x="810" y="571.1999999999999" as="targetPoint"/>
                    </mxGeometry>
                </mxCell>
                <mxCell id="12" value="" style="endArrow=none;html=1;rounded=0;" parent="1" edge="1">
                    <mxGeometry width="50" height="50" relative="1" as="geometry">
                        <mxPoint x="1053" y="580" as="sourcePoint"/>
                        <mxPoint x="1082.0000000000005" y="580" as="targetPoint"/>
                    </mxGeometry>
                </mxCell>
                <mxCell id="13" value="" style="endArrow=classic;html=1;rounded=0;" parent="1" edge="1">
                    <mxGeometry width="50" height="50" relative="1" as="geometry">
                        <mxPoint x="373.99999999999955" y="497.5" as="sourcePoint"/>
                        <mxPoint x="523.9999999999995" y="456.1999999999998" as="targetPoint"/>
                        <Array as="points">
                            <mxPoint x="374" y="456.20000000000005"/>
                        </Array>
                    </mxGeometry>
                </mxCell>
                <mxCell id="14" value="Flare" style="text;html=1;strokeColor=none;fillColor=none;align=left;verticalAlign=middle;whiteSpace=wrap;rounded=0;" parent="1" vertex="1">
                    <mxGeometry x="386" y="388" width="36" height="30" as="geometry"/>
                </mxCell>
                <mxCell id="15" value="Pilot Flame" style="text;html=1;strokeColor=#A50040;fillColor=#d80073;align=center;verticalAlign=middle;whiteSpace=wrap;rounded=0;fontColor=#ffffff;" parent="1" vertex="1">
                    <mxGeometry x="1120" y="405" width="60" height="30" as="geometry"/>
                </mxCell>
                <mxCell id="16" value="Oil" style="text;html=1;strokeColor=none;fillColor=none;align=center;verticalAlign=middle;whiteSpace=wrap;rounded=0;" parent="1" vertex="1">
                    <mxGeometry x="410" y="592.0000000000001" width="70" height="30" as="geometry"/>
                </mxCell>
                <mxCell id="18" value="" style="endArrow=classic;html=1;rounded=0;" parent="1" edge="1">
                    <mxGeometry width="50" height="50" relative="1" as="geometry">
                        <mxPoint x="383" y="571.1999999999998" as="sourcePoint"/>
                        <mxPoint x="512" y="616.4000000000001" as="targetPoint"/>
                        <Array as="points">
                            <mxPoint x="383" y="616.4000000000001"/>
                        </Array>
                    </mxGeometry>
                </mxCell>
                <mxCell id="17" value="" style="shape=mxgraph.pid.vessels.tank;html=1;pointerEvents=1;align=center;verticalLabelPosition=bottom;verticalAlign=top;dashed=0;rotation=-90;" parent="1" vertex="1">
                    <mxGeometry x="302" y="461.20000000000005" width="100" height="170" as="geometry"/>
                </mxCell>
                <mxCell id="19" value="" style="endArrow=classic;html=1;rounded=0;" parent="1" edge="1">
                    <mxGeometry width="50" height="50" relative="1" as="geometry">
                        <mxPoint x="327" y="596.1999999999998" as="sourcePoint"/>
                        <mxPoint x="456" y="641.3999999999996" as="targetPoint"/>
                        <Array as="points">
                            <mxPoint x="327" y="641.4000000000001"/>
                        </Array>
                    </mxGeometry>
                </mxCell>
                <mxCell id="20" value="Water" style="text;html=1;strokeColor=none;fillColor=none;align=center;verticalAlign=middle;whiteSpace=wrap;rounded=0;" parent="1" vertex="1">
                    <mxGeometry x="332" y="616.4000000000001" width="70" height="30" as="geometry"/>
                </mxCell>
                <mxCell id="21" value="" style="verticalLabelPosition=bottom;outlineConnect=0;align=center;dashed=0;html=1;verticalAlign=top;shape=mxgraph.pid.misc.gas_flare;" parent="1" vertex="1">
                    <mxGeometry x="1064" y="400" width="40" height="200" as="geometry"/>
                </mxCell>
                <mxCell id="22" value="" style="endArrow=none;html=1;rounded=0;" parent="1" edge="1">
                    <mxGeometry width="50" height="50" relative="1" as="geometry">
                        <mxPoint x="873" y="668" as="sourcePoint"/>
                        <mxPoint x="873" y="598" as="targetPoint"/>
                    </mxGeometry>
                </mxCell>
                <mxCell id="106" style="edgeStyle=none;html=1;exitX=0;exitY=0.5;exitDx=0;exitDy=0;exitPerimeter=0;endArrow=none;endFill=0;" parent="1" edge="1">
                    <mxGeometry relative="1" as="geometry">
                        <mxPoint x="873" y="631" as="targetPoint"/>
                        <mxPoint x="899" y="631.4000000000001" as="sourcePoint"/>
                    </mxGeometry>
                </mxCell>
                <mxCell id="25" value="" style="shape=mxgraph.pid.pumps_-_iso.pump_(liquid);html=1;pointerEvents=1;align=center;verticalLabelPosition=bottom;verticalAlign=top;dashed=0;" parent="1" vertex="1">
                    <mxGeometry x="896" y="616.4000000000001" width="27" height="30" as="geometry"/>
                </mxCell>
                <mxCell id="26" value="" style="shape=mxgraph.pid.pumps_-_iso.pump_(liquid);html=1;pointerEvents=1;align=center;verticalLabelPosition=bottom;verticalAlign=top;dashed=0;" parent="1" vertex="1">
                    <mxGeometry x="896" y="653.6000000000001" width="27" height="30" as="geometry"/>
                </mxCell>
                <mxCell id="27" value="" style="endArrow=classic;html=1;rounded=0;exitX=1;exitY=0.5;exitDx=0;exitDy=0;exitPerimeter=0;" parent="1" source="26" edge="1">
                    <mxGeometry width="50" height="50" relative="1" as="geometry">
                        <mxPoint x="923" y="669.6000000000004" as="sourcePoint"/>
                        <mxPoint x="1193" y="670" as="targetPoint"/>
                    </mxGeometry>
                </mxCell>
                <mxCell id="30" value="To upstream process" style="text;html=1;strokeColor=none;fillColor=none;align=left;verticalAlign=middle;whiteSpace=wrap;rounded=0;" parent="1" vertex="1">
                    <mxGeometry x="1104" y="670" width="104" height="30" as="geometry"/>
                </mxCell>
                <mxCell id="31" value="" style="endArrow=none;html=1;rounded=0;" parent="1" edge="1">
                    <mxGeometry width="50" height="50" relative="1" as="geometry">
                        <mxPoint x="933" y="500" as="sourcePoint"/>
                        <mxPoint x="933" y="450" as="targetPoint"/>
                    </mxGeometry>
                </mxCell>
                <mxCell id="32" value="" style="shape=mxgraph.pid.vessels.tank;html=1;pointerEvents=1;align=center;verticalLabelPosition=bottom;verticalAlign=top;dashed=0;rotation=-90;" parent="1" vertex="1">
                    <mxGeometry x="843" y="461.20000000000005" width="100" height="176.4" as="geometry"/>
                </mxCell>
                <mxCell id="33" value="" style="endArrow=none;html=1;rounded=0;" parent="1" edge="1">
                    <mxGeometry width="50" height="50" relative="1" as="geometry">
                        <mxPoint x="933" y="450" as="sourcePoint"/>
                        <mxPoint x="1053" y="450" as="targetPoint"/>
                    </mxGeometry>
                </mxCell>
                <mxCell id="34" value="" style="endArrow=none;html=1;rounded=0;" parent="1" edge="1">
                    <mxGeometry width="50" height="50" relative="1" as="geometry">
                        <mxPoint x="1053.5" y="580" as="sourcePoint"/>
                        <mxPoint x="1052.5" y="450" as="targetPoint"/>
                    </mxGeometry>
                </mxCell>
                <mxCell id="35" value="Knock-out drum" style="text;html=1;strokeColor=none;fillColor=none;align=center;verticalAlign=middle;whiteSpace=wrap;rounded=0;" parent="1" vertex="1">
                    <mxGeometry x="864" y="534.4000000000001" width="58" height="30" as="geometry"/>
                </mxCell>
                <mxCell id="36" value="Return pumps" style="text;html=1;strokeColor=none;fillColor=none;align=center;verticalAlign=middle;whiteSpace=wrap;rounded=0;" parent="1" vertex="1">
                    <mxGeometry x="883" y="681.5999999999999" width="58" height="30" as="geometry"/>
                </mxCell>
                <mxCell id="37" value="" style="endArrow=classic;html=1;rounded=0;entryX=1.008;entryY=0.331;entryDx=0;entryDy=0;entryPerimeter=0;" parent="1" target="32" edge="1">
                    <mxGeometry width="50" height="50" relative="1" as="geometry">
                        <mxPoint x="333.99999999999955" y="497.5" as="sourcePoint"/>
                        <mxPoint x="503" y="410" as="targetPoint"/>
                        <Array as="points">
                            <mxPoint x="334" y="410"/>
                            <mxPoint x="863" y="410"/>
                        </Array>
                    </mxGeometry>
                </mxCell>
                <mxCell id="38" value="Gas" style="text;html=1;strokeColor=none;fillColor=none;align=left;verticalAlign=middle;whiteSpace=wrap;rounded=0;" parent="1" vertex="1">
                    <mxGeometry x="396" y="435" width="36" height="30" as="geometry"/>
                </mxCell>
                <mxCell id="39" value="" style="verticalLabelPosition=bottom;align=center;html=1;verticalAlign=top;pointerEvents=1;dashed=0;shape=mxgraph.pid2valves.valve;valveType=gate;actuator=powered" parent="1" vertex="1">
                    <mxGeometry x="443" y="396" width="30" height="20" as="geometry"/>
                </mxCell>
                <mxCell id="40" value="" style="part=1;strokeColor=none;fillColor=none;fontStyle=1;fontSize=14;" parent="39" vertex="1">
                    <mxGeometry x="9.75" width="10.5" height="7" as="geometry"/>
                </mxCell>
                <mxCell id="41" value="" style="verticalLabelPosition=bottom;align=center;html=1;verticalAlign=top;pointerEvents=1;dashed=0;shape=mxgraph.pid2valves.valve;valveType=gate;actuator=powered" parent="1" vertex="1">
                    <mxGeometry x="466" y="442" width="30" height="20" as="geometry"/>
                </mxCell>
                <mxCell id="42" value="" style="part=1;strokeColor=none;fillColor=none;fontStyle=1;fontSize=14;" parent="41" vertex="1">
                    <mxGeometry x="9.75" width="10.5" height="7" as="geometry"/>
                </mxCell>
                <mxCell id="43" value="" style="verticalLabelPosition=bottom;align=center;html=1;verticalAlign=top;pointerEvents=1;dashed=0;shape=mxgraph.pid2valves.valve;valveType=gate;actuator=powered" parent="1" vertex="1">
                    <mxGeometry x="465" y="602" width="30" height="20" as="geometry"/>
                </mxCell>
                <mxCell id="44" value="" style="part=1;strokeColor=none;fillColor=none;fontStyle=1;fontSize=14;" parent="43" vertex="1">
                    <mxGeometry x="9.75" width="10.5" height="7" as="geometry"/>
                </mxCell>
                <mxCell id="45" value="" style="verticalLabelPosition=bottom;align=center;html=1;verticalAlign=top;pointerEvents=1;dashed=0;shape=mxgraph.pid2valves.valve;valveType=gate;actuator=powered" parent="1" vertex="1">
                    <mxGeometry x="396" y="627.5999999999999" width="30" height="20" as="geometry"/>
                </mxCell>
                <mxCell id="46" value="" style="part=1;strokeColor=none;fillColor=none;fontStyle=1;fontSize=14;" parent="45" vertex="1">
                    <mxGeometry x="9.75" width="10.5" height="7" as="geometry"/>
                </mxCell>
                <mxCell id="47" value="" style="endArrow=classic;html=1;rounded=0;" parent="1" edge="1">
                    <mxGeometry width="50" height="50" relative="1" as="geometry">
                        <mxPoint x="92" y="409.4" as="sourcePoint"/>
                        <mxPoint x="302" y="533.4" as="targetPoint"/>
                        <Array as="points">
                            <mxPoint x="302" y="410.4"/>
                        </Array>
                    </mxGeometry>
                </mxCell>
                <mxCell id="48" value="Feed" style="text;html=1;strokeColor=none;fillColor=none;align=left;verticalAlign=middle;whiteSpace=wrap;rounded=0;" parent="1" vertex="1">
                    <mxGeometry x="100" y="386" width="36" height="30" as="geometry"/>
                </mxCell>
                <mxCell id="49" value="" style="endArrow=classic;html=1;rounded=0;" parent="1" edge="1">
                    <mxGeometry width="50" height="50" relative="1" as="geometry">
                        <mxPoint x="1056" y="580" as="sourcePoint"/>
                        <mxPoint x="1077.0000000000005" y="581.1999999999998" as="targetPoint"/>
                    </mxGeometry>
                </mxCell>
                <mxCell id="64" value="" style="endArrow=none;html=1;rounded=0;" parent="1" edge="1">
                    <mxGeometry width="50" height="50" relative="1" as="geometry">
                        <mxPoint x="436.49999999999955" y="569.4000000000001" as="sourcePoint"/>
                        <mxPoint x="476.49999999999955" y="569.4000000000001" as="targetPoint"/>
                    </mxGeometry>
                </mxCell>
                <mxCell id="99" style="edgeStyle=none;html=1;exitX=1;exitY=0.5;exitDx=0;exitDy=0;fillColor=#d80073;strokeColor=#A50040;" parent="1" source="63" target="98" edge="1">
                    <mxGeometry relative="1" as="geometry"/>
                </mxCell>
                <mxCell id="63" value="LT" style="ellipse;whiteSpace=wrap;html=1;" parent="1" vertex="1">
                    <mxGeometry x="466" y="552.8000000000001" width="37" height="33.6" as="geometry"/>
                </mxCell>
                <mxCell id="97" style="edgeStyle=none;html=1;exitX=0;exitY=0.5;exitDx=0;exitDy=0;fillColor=#d80073;strokeColor=#A50040;" parent="1" source="65" edge="1">
                    <mxGeometry relative="1" as="geometry">
                        <mxPoint x="660" y="550" as="targetPoint"/>
                    </mxGeometry>
                </mxCell>
                <mxCell id="65" value="LT" style="ellipse;whiteSpace=wrap;html=1;" parent="1" vertex="1">
                    <mxGeometry x="748" y="552.8" width="37" height="33.6" as="geometry"/>
                </mxCell>
                <mxCell id="66" value="LS" style="ellipse;whiteSpace=wrap;html=1;" parent="1" vertex="1">
                    <mxGeometry x="748" y="506.4" width="37" height="33.6" as="geometry"/>
                </mxCell>
                <mxCell id="67" value="LS" style="ellipse;whiteSpace=wrap;html=1;" parent="1" vertex="1">
                    <mxGeometry x="466" y="506.4000000000002" width="37" height="33.6" as="geometry"/>
                </mxCell>
                <mxCell id="89" value="Should there be added ESD and PSD logic?" style="rounded=0;whiteSpace=wrap;html=1;fillColor=#d80073;fontColor=#ffffff;strokeColor=#A50040;" parent="1" vertex="1">
                    <mxGeometry x="628" y="730" width="120" height="60" as="geometry"/>
                </mxCell>
                <mxCell id="92" value="Separator?" style="rounded=0;whiteSpace=wrap;html=1;fillColor=#d80073;fontColor=#ffffff;strokeColor=#A50040;" parent="1" vertex="1">
                    <mxGeometry x="317" y="528.8" width="79" height="41.2" as="geometry"/>
                </mxCell>
                <mxCell id="94" value="Level transmitter?" style="text;html=1;align=center;verticalAlign=middle;resizable=0;points=[];autosize=1;strokeColor=#A50040;fillColor=#d80073;fontColor=#ffffff;" parent="1" vertex="1">
                    <mxGeometry x="680" y="592" width="120" height="30" as="geometry"/>
                </mxCell>
                <mxCell id="96" value="Level Switch?" style="text;html=1;align=center;verticalAlign=middle;resizable=0;points=[];autosize=1;strokeColor=#A50040;fillColor=#d80073;fontColor=#ffffff;" parent="1" vertex="1">
                    <mxGeometry x="680" y="475" width="100" height="30" as="geometry"/>
                </mxCell>
                <mxCell id="108" style="edgeStyle=none;html=1;exitX=0;exitY=0.5;exitDx=0;exitDy=0;exitPerimeter=0;endArrow=none;endFill=0;" parent="1" source="26" edge="1">
                    <mxGeometry relative="1" as="geometry">
                        <mxPoint x="872" y="668" as="targetPoint"/>
                        <mxPoint x="891" y="668.4000000000001" as="sourcePoint"/>
                    </mxGeometry>
                </mxCell>
                <mxCell id="98" value="ESD/PSD?" style="text;html=1;align=center;verticalAlign=middle;resizable=0;points=[];autosize=1;strokeColor=#A50040;fillColor=#d80073;fontColor=#ffffff;" parent="1" vertex="1">
                    <mxGeometry x="580" y="534.4" width="80" height="30" as="geometry"/>
                </mxCell>
                <mxCell id="107" style="edgeStyle=none;html=1;exitX=0;exitY=0.5;exitDx=0;exitDy=0;exitPerimeter=0;endArrow=none;endFill=0;" parent="1" edge="1">
                    <mxGeometry relative="1" as="geometry">
                        <mxPoint x="922" y="631" as="targetPoint"/>
                        <mxPoint x="948" y="631.4000000000001" as="sourcePoint"/>
                    </mxGeometry>
                </mxCell>
                <mxCell id="111" style="edgeStyle=none;html=1;endArrow=none;endFill=0;" parent="1" edge="1">
                    <mxGeometry relative="1" as="geometry">
                        <mxPoint x="948" y="630" as="targetPoint"/>
                        <mxPoint x="948" y="669" as="sourcePoint"/>
                    </mxGeometry>
                </mxCell>
                <mxCell id="112" value="PRV" style="text;html=1;align=center;verticalAlign=middle;resizable=0;points=[];autosize=1;strokeColor=#A50040;fillColor=#d80073;fontColor=#ffffff;" vertex="1" parent="1">
                    <mxGeometry x="435" y="355" width="50" height="30" as="geometry"/>
                </mxCell>
                <mxCell id="113" value="Flare Tower" style="text;html=1;align=center;verticalAlign=middle;resizable=0;points=[];autosize=1;strokeColor=#A50040;fillColor=#d80073;fontColor=#ffffff;" vertex="1" parent="1">
                    <mxGeometry x="1105" y="475" width="90" height="30" as="geometry"/>
                </mxCell>
            </root>
        </mxGraphModel>
    </diagram>
</mxfile>